<svg width="250" height="250" viewBox="0 0 250 250" fill="none" xmlns="http://www.w3.org/2000/svg">
<rect width="250" height="250" fill="#EDECE9"/>
<path d="M104.222 188.603V186.762L113.121 186.148C114.962 185.943 116.189 185.279 116.803 184.153C117.519 183.131 117.877 181.187 117.877 178.323V173.72C106.319 173.516 96.3973 171.624 88.1122 168.044C79.8271 164.464 73.4343 159.401 68.9338 152.854C64.5356 146.206 62.3365 138.381 62.3365 129.38C62.3365 114.856 67.195 103.451 76.912 95.1658C86.6291 86.8807 100.284 82.4825 117.877 81.9711V76.908C117.877 74.1463 117.519 72.3051 116.803 71.3846C116.189 70.3617 114.86 69.7992 112.814 69.6969L104.222 69.2366V67.3955H146.721V69.2366L137.669 69.6969C135.93 69.7992 134.703 70.4129 133.987 71.538C133.373 72.5609 133.066 74.5554 133.066 77.5217V81.8176C144.522 82.0222 154.29 83.9145 162.371 87.4944C170.554 90.9721 176.793 95.9329 181.089 102.377C185.487 108.821 187.686 116.543 187.686 125.544C187.686 135.057 185.487 143.342 181.089 150.399C176.793 157.457 170.554 162.981 162.371 166.97C154.29 170.856 144.522 173.056 133.066 173.567V178.937C133.066 181.596 133.373 183.386 133.987 184.307C134.703 185.33 136.033 185.943 137.976 186.148L146.721 186.762V188.603H104.222ZM117.877 170.805V83.6587C104.273 83.761 94.3004 87.2898 87.9588 94.2452C81.7194 101.098 78.5997 111.889 78.5997 126.618C78.5997 140.529 81.8728 151.167 88.4191 158.531C95.0676 165.896 104.887 169.987 117.877 170.805ZM133.066 171.266C146.466 171.061 156.132 167.634 162.064 160.986C167.997 154.235 170.963 143.342 170.963 128.306C170.963 114.191 167.843 103.502 161.604 96.2398C155.364 88.9776 145.852 84.9373 133.066 84.119V171.266Z" fill="#1B1B1B"/>
</svg>
